<svg width="92" height="19" viewBox="0 0 92 19" fill="none" xmlns="http://www.w3.org/2000/svg">
<path d="M7.27203 13.44C6.8587 14.1467 6.36536 14.6333 5.79203 14.9C5.23203 15.1533 4.6387 15.28 4.01203 15.28C3.4787 15.28 2.9987 15.1867 2.57203 15C2.14536 14.8 1.78536 14.5267 1.49203 14.18C1.1987 13.8333 0.972031 13.42 0.812031 12.94C0.652031 12.4467 0.572031 11.9067 0.572031 11.32C0.572031 10.48 0.692031 9.66667 0.932031 8.88C1.17203 8.09333 1.5187 7.4 1.97203 6.8C2.4387 6.2 3.01203 5.72 3.69203 5.36C4.37203 4.98667 5.1587 4.8 6.05203 4.8C6.73203 4.8 7.31203 4.96 7.79203 5.28C8.27203 5.58667 8.58536 6.04 8.73203 6.64H8.97203L9.29203 5.08H10.852L9.09203 13.32C9.06536 13.44 9.0787 13.5333 9.13203 13.6C9.18537 13.6533 9.2587 13.68 9.35203 13.68C9.44537 13.68 9.5387 13.6467 9.63203 13.58L10.352 13.06L11.192 14.24L10.292 14.92C10.1454 15.0267 9.9587 15.1133 9.73203 15.18C9.5187 15.2467 9.2987 15.28 9.07203 15.28C8.87203 15.28 8.6787 15.2533 8.49203 15.2C8.30537 15.1467 8.13203 15.0667 7.97203 14.96C7.82537 14.84 7.70537 14.6933 7.61203 14.52C7.5187 14.3333 7.47203 14.1067 7.47203 13.84C7.47203 13.7733 7.47203 13.7067 7.47203 13.64C7.48536 13.5733 7.4987 13.5067 7.51203 13.44H7.27203ZM4.49203 13.8C5.02536 13.8 5.52536 13.68 5.99203 13.44C6.47203 13.1867 6.88536 12.8467 7.23203 12.42C7.59203 11.9933 7.87203 11.4933 8.07203 10.92C8.27203 10.3333 8.37203 9.7 8.37203 9.02C8.37203 8.19333 8.18536 7.53333 7.81203 7.04C7.4387 6.53333 6.8587 6.28 6.07203 6.28C5.44536 6.28 4.89203 6.41333 4.41203 6.68C3.94536 6.94667 3.54536 7.30667 3.21203 7.76C2.8787 8.2 2.62536 8.71333 2.45203 9.3C2.29203 9.88667 2.21203 10.4933 2.21203 11.12C2.21203 12 2.40536 12.6667 2.79203 13.12C3.1787 13.5733 3.74536 13.8 4.49203 13.8ZM21.3381 7.56C21.3515 7.49333 21.3581 7.43333 21.3581 7.38C21.3715 7.32667 21.3781 7.26667 21.3781 7.2C21.3781 6.93333 21.3048 6.71333 21.1581 6.54C21.0115 6.36667 20.7848 6.28 20.4781 6.28C20.0915 6.28 19.7848 6.41333 19.5581 6.68C19.3448 6.94667 19.1848 7.32 19.0781 7.8L17.5381 15H15.9781L17.5581 7.56C17.5848 7.42667 17.5981 7.28667 17.5981 7.14C17.5981 6.9 17.5315 6.7 17.3981 6.54C17.2781 6.36667 17.0515 6.28 16.7181 6.28C16.2915 6.28 15.9715 6.43333 15.7581 6.74C15.5448 7.04667 15.3915 7.4 15.2981 7.8L13.7581 15H12.2181L14.3181 5.08H15.8781L15.6981 5.92H15.9381C16.0848 5.53333 16.3115 5.25333 16.6181 5.08C16.9248 4.89333 17.2648 4.8 17.6381 4.8C18.0515 4.8 18.3848 4.9 18.6381 5.1C18.9048 5.3 19.0715 5.57333 19.1381 5.92H19.3781C19.5648 5.56 19.8048 5.28667 20.0981 5.1C20.3915 4.9 20.7515 4.8 21.1781 4.8C21.7781 4.8 22.2315 4.98 22.5381 5.34C22.8448 5.68667 22.9981 6.14667 22.9981 6.72C22.9981 6.84 22.9915 6.97333 22.9781 7.12C22.9648 7.25333 22.9448 7.37333 22.9181 7.48L21.6381 13.44C21.6115 13.5467 21.6248 13.6267 21.6781 13.68C21.7315 13.7333 21.7981 13.76 21.8781 13.76C21.9581 13.76 22.0315 13.7333 22.0981 13.68L22.9381 13.06L23.7781 14.24L22.8781 14.92C22.7315 15.0267 22.5448 15.1133 22.3181 15.18C22.1048 15.2467 21.8848 15.28 21.6581 15.28C21.4581 15.28 21.2648 15.2533 21.0781 15.2C20.8915 15.1467 20.7181 15.0667 20.5581 14.96C20.4115 14.84 20.2915 14.6933 20.1981 14.52C20.1048 14.3333 20.0581 14.1067 20.0581 13.84C20.0581 13.7733 20.0581 13.7067 20.0581 13.64C20.0715 13.5733 20.0848 13.5067 20.0981 13.44L21.3381 7.56ZM28.5842 0.719999L27.3242 6.64H27.5642C27.9376 6.09333 28.4176 5.65333 29.0042 5.32C29.5909 4.97333 30.2776 4.8 31.0642 4.8C31.5842 4.8 32.0642 4.89333 32.5042 5.08C32.9576 5.25333 33.3442 5.51333 33.6642 5.86C33.9842 6.19333 34.2376 6.6 34.4242 7.08C34.6109 7.54667 34.7042 8.06667 34.7042 8.64C34.7042 9.66667 34.5576 10.5867 34.2642 11.4C33.9709 12.2133 33.5709 12.9133 33.0642 13.5C32.5576 14.0733 31.9576 14.5133 31.2642 14.82C30.5842 15.1267 29.8509 15.28 29.0642 15.28C28.4376 15.28 27.8442 15.1333 27.2842 14.84C26.7242 14.5333 26.3376 14.08 26.1242 13.48H25.8842L25.5642 15H24.0242L27.0442 0.719999H28.5842ZM29.0242 13.8C29.5709 13.8 30.0909 13.6867 30.5842 13.46C31.0776 13.22 31.5042 12.8867 31.8642 12.46C32.2376 12.0333 32.5309 11.52 32.7442 10.92C32.9576 10.32 33.0642 9.66 33.0642 8.94C33.0642 8.12667 32.8442 7.48 32.4042 7C31.9776 6.52 31.3642 6.28 30.5642 6.28C29.9776 6.28 29.4376 6.40667 28.9442 6.66C28.4509 6.91333 28.0242 7.26 27.6642 7.7C27.3042 8.14 27.0242 8.64667 26.8242 9.22C26.6242 9.79333 26.5242 10.4 26.5242 11.04C26.5242 11.92 26.7442 12.6 27.1842 13.08C27.6242 13.56 28.2376 13.8 29.0242 13.8ZM40.8703 2.72C40.9103 2.56 40.8903 2.44 40.8103 2.36C40.7436 2.26667 40.6436 2.22 40.5103 2.22C40.417 2.22 40.317 2.25333 40.2103 2.32L37.8703 3.92L37.0703 2.74L39.4303 1.14C39.6436 0.993332 39.8636 0.886666 40.0903 0.819999C40.317 0.753332 40.5436 0.719999 40.7703 0.719999C41.2103 0.719999 41.597 0.853333 41.9303 1.12C42.277 1.38667 42.4503 1.8 42.4503 2.36C42.4503 2.58667 42.4236 2.8 42.3703 3L39.9503 13.26C39.9103 13.42 39.9236 13.5467 39.9903 13.64C40.0703 13.7333 40.1703 13.78 40.2903 13.78C40.3836 13.78 40.4836 13.7467 40.5903 13.68L42.8903 12.12L43.6903 13.3L41.3903 14.86C40.9636 15.14 40.517 15.28 40.0503 15.28C39.6103 15.28 39.217 15.1467 38.8703 14.88C38.537 14.6133 38.3703 14.2 38.3703 13.64C38.3703 13.4133 38.397 13.2 38.4503 13L40.8703 2.72ZM50.0764 10.8C49.9831 11.2133 49.9364 11.6 49.9364 11.96C49.9364 13.1867 50.5964 13.8 51.9164 13.8C52.8364 13.8 53.6231 13.48 54.2764 12.84C54.9297 12.1867 55.3697 11.32 55.5964 10.24L56.6764 5.08H58.2364L55.6164 17.44C55.5231 17.8933 55.3031 18.2667 54.9564 18.56C54.6097 18.8533 54.2097 19 53.7564 19H48.3364V17.56H53.4964C53.8564 17.56 54.0764 17.36 54.1564 16.96L54.9164 13.44H54.6764C54.2764 14.04 53.7964 14.5 53.2364 14.82C52.6897 15.1267 52.0364 15.28 51.2764 15.28C50.3831 15.28 49.6697 15.0133 49.1364 14.48C48.6031 13.9467 48.3364 13.1933 48.3364 12.22C48.3364 11.82 48.3831 11.4133 48.4764 11L49.3764 6.72C49.4031 6.58667 49.3831 6.48667 49.3164 6.42C49.2631 6.34 49.1897 6.3 49.0964 6.3C49.0164 6.3 48.9297 6.33333 48.8364 6.4L47.8164 7.1L47.0164 5.92L48.0564 5.22C48.4697 4.94 48.8897 4.8 49.3164 4.8C49.7564 4.8 50.1364 4.94667 50.4564 5.24C50.7764 5.53333 50.9364 5.94 50.9364 6.46C50.9364 6.54 50.9297 6.62 50.9164 6.7C50.9164 6.76667 50.9031 6.86 50.8764 6.98L50.0764 10.8ZM61.4825 13.88C61.4825 13.4933 61.6158 13.1667 61.8825 12.9C62.1625 12.62 62.4958 12.48 62.8825 12.48C63.2692 12.48 63.5958 12.62 63.8625 12.9C64.1425 13.1667 64.2825 13.4933 64.2825 13.88C64.2825 14.2667 64.1425 14.6 63.8625 14.88C63.5958 15.1467 63.2692 15.28 62.8825 15.28C62.4958 15.28 62.1625 15.1467 61.8825 14.88C61.6158 14.6 61.4825 14.2667 61.4825 13.88ZM75.3086 2.12C75.3086 1.73333 75.4419 1.40667 75.7086 1.14C75.9886 0.859999 76.3219 0.719999 76.7086 0.719999C77.0953 0.719999 77.4219 0.859999 77.6886 1.14C77.9686 1.40667 78.1086 1.73333 78.1086 2.12C78.1086 2.50667 77.9686 2.84 77.6886 3.12C77.4219 3.38667 77.0953 3.52 76.7086 3.52C76.3219 3.52 75.9886 3.38667 75.7086 3.12C75.4419 2.84 75.3086 2.50667 75.3086 2.12ZM74.9886 6.82C75.0153 6.68667 74.9953 6.57333 74.9286 6.48C74.8753 6.37333 74.7753 6.32 74.6286 6.32C74.5219 6.32 74.4219 6.34667 74.3286 6.4L71.9886 8L71.1886 6.82L73.5486 5.22C73.9619 4.94 74.4086 4.8 74.8886 4.8C75.3419 4.8 75.7353 4.93333 76.0686 5.2C76.4019 5.46667 76.5686 5.88 76.5686 6.44C76.5686 6.65333 76.5419 6.86667 76.4886 7.08L75.0086 13.26C74.9686 13.42 74.9819 13.5467 75.0486 13.64C75.1286 13.7333 75.2286 13.78 75.3486 13.78C75.4419 13.78 75.5419 13.7467 75.6486 13.68L77.9486 12.12L78.7486 13.3L76.4486 14.86C76.0219 15.14 75.5753 15.28 75.1086 15.28C74.6553 15.28 74.2619 15.1467 73.9286 14.88C73.5953 14.6133 73.4286 14.2 73.4286 13.64C73.4286 13.4267 73.4553 13.2133 73.5086 13L74.9886 6.82ZM87.3147 4.8C87.888 4.8 88.4214 4.9 88.9147 5.1C89.408 5.3 89.8347 5.58 90.1947 5.94C90.5547 6.3 90.8347 6.73333 91.0347 7.24C91.248 7.73333 91.3547 8.28 91.3547 8.88C91.3547 9.70667 91.2147 10.5067 90.9347 11.28C90.668 12.04 90.268 12.72 89.7347 13.32C89.2147 13.9067 88.568 14.38 87.7947 14.74C87.0347 15.1 86.168 15.28 85.1947 15.28C84.6347 15.28 84.108 15.1867 83.6147 15C83.1214 14.8 82.688 14.5267 82.3147 14.18C81.9547 13.8333 81.668 13.4133 81.4547 12.92C81.2414 12.4133 81.1347 11.8533 81.1347 11.24C81.1347 10.28 81.2947 9.40667 81.6147 8.62C81.948 7.82 82.3947 7.14 82.9547 6.58C83.528 6.02 84.188 5.58667 84.9347 5.28C85.6814 4.96 86.4747 4.8 87.3147 4.8ZM85.5347 13.8C86.148 13.8 86.7147 13.6667 87.2347 13.4C87.7547 13.12 88.2014 12.76 88.5747 12.32C88.948 11.8667 89.2347 11.3533 89.4347 10.78C89.648 10.2067 89.7547 9.61333 89.7547 9C89.7547 8.21333 89.508 7.56667 89.0147 7.06C88.5347 6.54 87.8547 6.28 86.9747 6.28C86.4014 6.28 85.8614 6.40667 85.3547 6.66C84.848 6.91333 84.4014 7.26 84.0147 7.7C83.6414 8.14 83.3414 8.65333 83.1147 9.24C82.888 9.81333 82.7747 10.4267 82.7747 11.08C82.7747 11.88 83.0147 12.5333 83.4947 13.04C83.9747 13.5467 84.6547 13.8 85.5347 13.8Z" fill="currentColor"/>
</svg>
